<svg width="14" height="20" viewBox="0 0 14 20" fill="none" xmlns="http://www.w3.org/2000/svg">
<path d="M13.4097 0.0641908C13.3024 0.00966342 13.181 -0.0108372 13.0618 0.00542545C12.9425 0.0216881 12.8311 0.0739404 12.7423 0.155207L4.94522 6.61736H0.637114C0.554172 6.61534 0.471662 6.62993 0.394445 6.66028C0.317228 6.69063 0.246863 6.73612 0.187493 6.79408C0.128124 6.85203 0.0809509 6.92128 0.0487509 6.99775C0.016551 7.07421 -2.46542e-05 7.15634 2.75233e-08 7.23931V12.761C2.75233e-08 12.9299 0.0671243 13.092 0.186606 13.2115C0.306089 13.331 0.468141 13.3981 0.637114 13.3981H4.94522L12.7423 19.8602C12.8346 19.9354 12.9466 19.9826 13.0649 19.996C13.1832 20.0095 13.3029 19.9887 13.4097 19.9361C13.5165 19.8855 13.6071 19.8062 13.6714 19.7071C13.7357 19.608 13.7711 19.4929 13.7738 19.3748V0.640627C13.7705 0.520693 13.735 0.403859 13.6709 0.302418C13.6069 0.200978 13.5166 0.118682 13.4097 0.0641908Z" fill="#CACFEA"/>
</svg>
